<svg width="78" height="78" viewBox="0 0 78 78" fill="none" xmlns="http://www.w3.org/2000/svg">
<path d="M60.3697 70.8059C54.0688 75.0442 46.6534 77.3205 39.0597 77.3474C34.0047 77.3575 28.9972 76.3716 24.3233 74.4459C19.6492 72.5202 15.4003 69.6924 11.8194 66.1241C8.23847 62.5558 5.39569 58.3169 3.45346 53.6496C1.51129 48.9824 0.507691 43.9784 0.5 38.9232C0.500123 31.3296 2.75025 23.9063 6.96626 17.5907C11.1823 11.2749 17.1753 6.34996 24.1884 3.4378C31.2016 0.525645 38.9203 -0.243169 46.3701 1.22844C53.8198 2.70005 60.6665 6.34609 66.0455 11.7062C71.4246 17.0662 75.0948 23.9 76.5927 31.3445C78.0906 38.789 77.349 46.5105 74.4616 53.5338C71.5743 60.5572 66.6706 66.5675 60.3697 70.8059Z" fill="#F0F9F4" stroke="white"/>
<path d="M39.0595 2.46684C46.2521 2.50142 53.2734 4.66509 59.2378 8.68498C65.2024 12.7049 69.843 18.4012 72.5743 25.0552C75.3056 31.7092 76.0053 39.0231 74.5852 46.0743C73.1651 53.1255 69.6887 59.5982 64.5945 64.6762C59.5004 69.7542 53.0166 73.2099 45.9609 74.6076C38.9052 76.0052 31.5936 75.2822 24.9483 72.5297C18.303 69.7772 12.6216 65.1185 8.62067 59.1411C4.6198 53.1639 2.47852 46.1357 2.46686 38.9431C2.46689 34.1432 3.41422 29.3906 5.25457 24.9575C7.09497 20.5244 9.79223 16.4981 13.1917 13.1094C16.5913 9.72066 20.6262 7.03624 25.0652 5.20998C29.504 3.38377 34.2597 2.45158 39.0595 2.46684Z" fill="url(#paint0_linear_298_2)" stroke="white"/>
<path d="M33.8803 31.7684C38.3911 22.8246 44.2454 13.024 50.5544 7.0782C63.2222 11.328 70.457 21.2773 72.6197 32.0693C74.7256 42.5774 72.0158 53.8479 64.8564 61.4049C64.5845 57.3111 63.5637 52.0851 61.923 46.944C60.1263 41.3145 57.5704 35.736 54.3971 31.842L54.1094 31.489L53.7311 31.7425C42.503 39.267 33.8852 50.7217 26.9898 61.7577C20.5641 54.5935 15.4767 46.3316 11.9717 37.365L11.5644 36.3231L11.0598 37.3215C9.11917 41.1607 7.51854 45.1606 6.27532 49.2751C5.83369 41.7987 6.63087 34.5822 8.07601 28.4996C9.52417 22.4043 11.6108 17.4978 13.7146 14.6073C14.4892 24.9073 15.9279 32.0271 17.7632 37.5354C19.6748 43.2728 22.0103 47.2409 24.4344 51.2022L24.967 52.0725L25.3285 51.1184C26.171 48.8944 29.3257 40.7991 33.8803 31.7684Z" fill="#F0F9F4" stroke="white"/>
<defs>
<linearGradient id="paint0_linear_298_2" x1="39.0615" y1="2.06519" x2="39.0615" y2="75.6841" gradientUnits="userSpaceOnUse">
<stop stop-color="#E30917"/>
<stop offset="1" stop-color="#53130C"/>
</linearGradient>
</defs>
</svg>
