<svg width="83" height="63" viewBox="0 0 83 63" fill="none" xmlns="http://www.w3.org/2000/svg">
<path d="M33.8971 27.9742C39.3369 18.0697 46.4039 7.19025 54.0322 0.559001C84.3517 9.94201 88.9392 44.0135 71.1985 61.0046C70.8908 56.4447 69.6513 50.583 67.6469 44.8169C65.482 38.5893 62.4074 32.4225 58.604 28.1094L58.3252 27.7932L57.9664 28.0145C44.4223 36.3701 34.0349 49.0949 25.7015 61.3378C17.921 53.377 11.7819 44.1832 7.58384 34.2053L7.18304 33.2527L6.68489 34.1582C4.24817 38.5874 2.24048 43.2038 0.684315 47.9539C0.071334 39.4886 1.03882 31.2957 2.82275 24.4127C4.61029 17.5157 7.20368 11.986 9.80447 8.8117C10.725 20.3255 12.4774 28.2644 14.7081 34.3881C17.0153 40.722 19.8266 45.0914 22.712 49.433L23.2296 50.212L23.5898 49.3488C24.6167 46.8881 28.4153 37.9551 33.8971 27.9742Z" fill="#F0F9F4" stroke="#848484"/>
</svg>
